<svg width="156" height="156" viewBox="0 0 156 156" fill="none" xmlns="http://www.w3.org/2000/svg">
<path d="M67.1023 48.438C59.5081 54.1956 52.3223 60.473 45.5966 67.2248C13.9063 98.9151 -2.13938 134.227 9.73891 146.116C21.6172 157.995 56.9401 141.938 88.6192 110.259C95.3715 103.529 101.649 96.3398 107.406 88.7417" stroke="#06B6D4" stroke-width="4" stroke-linecap="round" stroke-linejoin="round"/>
<path d="M107.406 88.7414C126.093 113.545 133.703 136.879 124.477 146.105C112.587 157.994 77.2757 141.937 45.5854 110.258C13.9174 78.5568 -2.12826 43.2563 9.75002 31.3668C18.9763 22.1517 42.3094 29.7623 67.1134 48.4377" stroke="#06B6D4" stroke-width="4" stroke-linecap="round" stroke-linejoin="round"/>
<path d="M89.4995 40.2256C85.9895 39.6127 85.9895 34.5873 89.4995 33.9856C95.7005 32.9114 101.44 30.0127 105.986 25.66C110.531 21.3072 113.675 15.698 115.017 9.54928L115.217 8.57985C115.975 5.12557 120.9 5.10328 121.68 8.54643L121.947 9.67185C123.346 15.7901 126.52 21.3593 131.072 25.6807C135.623 30.0021 141.349 32.8834 147.531 33.9633C151.053 34.5761 151.053 39.635 147.531 40.2367C141.349 41.3166 135.623 44.1979 131.072 48.5193C126.52 52.8407 123.346 58.4098 121.947 64.5281L121.68 65.6536C120.9 69.1079 115.975 69.0856 115.217 65.6313L114.994 64.6619C113.653 58.5131 110.509 52.904 105.963 48.5512C101.418 44.1984 95.6782 41.2997 89.4772 40.2256M61.5309 88.7416C61.5309 90.2192 62.1179 91.6363 63.1627 92.6812C64.2076 93.726 65.6247 94.313 67.1023 94.313C68.5799 94.313 69.9971 93.726 71.0419 92.6812C72.0868 91.6363 72.6737 90.2192 72.6737 88.7416C72.6737 87.2639 72.0868 85.8468 71.0419 84.802C69.9971 83.7571 68.5799 83.1701 67.1023 83.1701C65.6247 83.1701 64.2076 83.7571 63.1627 84.802C62.1179 85.8468 61.5309 87.2639 61.5309 88.7416Z" stroke="#06B6D4" stroke-width="4" stroke-linecap="round" stroke-linejoin="round"/>
</svg>
