<svg width="106" height="106" viewBox="0 0 106 106" fill="none" xmlns="http://www.w3.org/2000/svg">
<path d="M25.375 65.025L40.975 80.625M25.375 65.025C25.375 65.025 34.5855 42.002 47.696 26.025M25.375 65.025C-8.5485 56.5425 21.93 26.025 47.696 26.025M40.975 80.625C40.975 80.625 63.998 71.4145 79.975 58.304M40.975 80.625C49.4575 114.542 79.975 84.07 79.975 58.304M47.696 26.025C60.956 9.866 82.8155 2.625 103.375 2.625C103.375 23.1845 96.134 45.0375 79.975 58.304M68.925 36.4705L73.5205 31.875M10.8735 82.744C4.6855 87.9505 2.625 103.407 2.625 103.407C2.625 103.407 18.043 101.34 23.2365 95.1395C26.1615 91.6685 26.1225 86.3385 22.866 83.1145C21.256 81.6011 19.1484 80.7282 16.9399 80.6599C14.7313 80.5917 12.5739 81.3329 10.8735 82.744Z" stroke="#06B6D4" stroke-width="4.5" stroke-linecap="round" stroke-linejoin="round"/>
</svg>
