<svg width="134" height="134" viewBox="0 0 134 134" fill="none" xmlns="http://www.w3.org/2000/svg">
<mask id="mask0_55_2428" style="mask-type:luminance" maskUnits="userSpaceOnUse" x="0" y="0" width="134" height="134">
<path d="M132 24.75V112.5C132 123.27 102.899 132 67 132C31.1005 132 2 123.27 2 112.5V24.75" stroke="white" stroke-width="4" stroke-linecap="round" stroke-linejoin="round"/>
<path d="M132 83.25C132 94.0205 102.899 102.75 67 102.75C31.1005 102.75 2 94.0205 2 83.25M132 54C132 64.7705 102.899 73.5 67 73.5C31.1005 73.5 2 64.7705 2 54" stroke="white" stroke-width="4" stroke-linecap="round" stroke-linejoin="round"/>
<path d="M67 41C102.899 41 132 32.2696 132 21.5C132 10.7304 102.899 2 67 2C31.1015 2 2 10.7304 2 21.5C2 32.2696 31.1015 41 67 41Z" fill="#555555" stroke="white" stroke-width="4" stroke-linecap="round" stroke-linejoin="round"/>
</mask>
<g mask="url(#mask0_55_2428)">
<path d="M-11 -11H145V145H-11V-11Z" fill="#06B6D4"/>
</g>
</svg>
