<svg width="156" height="156" viewBox="0 0 156 156" fill="none" xmlns="http://www.w3.org/2000/svg">
<path d="M19.5 67.7105C19.5 46.9235 19.5 36.53 21.957 33.033C24.4075 29.5425 34.177 26.195 53.7225 19.5065L57.447 18.2325C67.6325 14.742 72.722 13 78 13C83.278 13 88.3675 14.742 98.553 18.2325L102.277 19.5065C121.823 26.195 131.592 29.5425 134.043 33.033C136.5 36.53 136.5 46.93 136.5 67.7105V77.9415C136.5 114.589 108.946 132.379 91.6565 139.926C86.97 141.973 84.63 143 78 143C71.37 143 69.03 141.973 64.3435 139.926C47.0535 132.373 19.5 114.595 19.5 77.9415V67.7105Z" stroke="#06B6D4" stroke-width="4.5"/>
<path d="M19.5 71.5L78 52L136.5 71.5M78 13V139.75" stroke="#06B6D4" stroke-width="4.5"/>
</svg>
