<svg width="180" height="180" viewBox="0 0 180 180" fill="none" xmlns="http://www.w3.org/2000/svg">
<path fill-rule="evenodd" clip-rule="evenodd" d="M45 81C49.7739 81 54.3523 79.1036 57.7279 75.7279C61.1036 72.3523 63 67.7739 63 63C63 58.2261 61.1036 53.6477 57.7279 50.2721C54.3523 46.8964 49.7739 45 45 45C40.2261 45 35.6477 46.8964 32.2721 50.2721C28.8964 53.6477 27 58.2261 27 63C27 67.7739 28.8964 72.3523 32.2721 75.7279C35.6477 79.1036 40.2261 81 45 81ZM45 90C48.5457 90 52.0567 89.3016 55.3325 87.9447C58.6082 86.5879 61.5847 84.5991 64.0919 82.0919C66.5991 79.5847 68.5879 76.6082 69.9447 73.3325C71.3016 70.0567 72 66.5457 72 63C72 59.4543 71.3016 55.9433 69.9447 52.6675C68.5879 49.3918 66.5991 46.4153 64.0919 43.9081C61.5847 41.4009 58.6082 39.4121 55.3325 38.0553C52.0567 36.6984 48.5457 36 45 36C37.8392 36 30.9716 38.8446 25.9081 43.9081C20.8446 48.9716 18 55.8392 18 63C18 70.1608 20.8446 77.0284 25.9081 82.0919C30.9716 87.1554 37.8392 90 45 90Z" fill="#06B6D4"/>
<path fill-rule="evenodd" clip-rule="evenodd" d="M34.686 80.064C35.1051 80.482 35.4376 80.9786 35.6644 81.5253C35.8913 82.072 36.008 82.6581 36.008 83.25C36.008 83.8419 35.8913 84.428 35.6644 84.9747C35.4376 85.5214 35.1051 86.018 34.686 86.436L31.644 89.469C25.7898 95.3248 22.5008 103.266 22.5 111.546V128.25C22.5 129.444 22.0259 130.588 21.182 131.432C20.3381 132.276 19.1935 132.75 18 132.75C16.8065 132.75 15.6619 132.276 14.818 131.432C13.9741 130.588 13.5 129.444 13.5 128.25V111.546C13.5013 100.879 17.7389 90.6493 25.281 83.106L28.314 80.064C28.732 79.645 29.2286 79.3125 29.7753 79.0856C30.322 78.8588 30.9081 78.742 31.5 78.742C32.0919 78.742 32.678 78.8588 33.2247 79.0856C33.7714 79.3125 34.268 79.645 34.686 80.064ZM140.814 77.364C140.395 77.782 140.062 78.2786 139.836 78.8253C139.609 79.372 139.492 79.9581 139.492 80.55C139.492 81.1419 139.609 81.728 139.836 82.2747C140.062 82.8214 140.395 83.318 140.814 83.736L143.856 86.769C149.71 92.6248 152.999 100.566 153 108.846V128.25C153 129.444 153.474 130.588 154.318 131.432C155.162 132.276 156.307 132.75 157.5 132.75C158.693 132.75 159.838 132.276 160.682 131.432C161.526 130.588 162 129.444 162 128.25V108.846C161.999 98.1791 157.761 87.9493 150.219 80.406L147.186 77.364C146.768 76.945 146.271 76.6125 145.725 76.3856C145.178 76.1588 144.592 76.042 144 76.042C143.408 76.042 142.822 76.1588 142.275 76.3856C141.729 76.6125 141.232 76.945 140.814 77.364Z" fill="#06B6D4"/>
<path fill-rule="evenodd" clip-rule="evenodd" d="M126 81C121.226 81 116.648 79.1036 113.272 75.7279C109.896 72.3523 108 67.7739 108 63C108 58.2261 109.896 53.6477 113.272 50.2721C116.648 46.8964 121.226 45 126 45C130.774 45 135.352 46.8964 138.728 50.2721C142.104 53.6477 144 58.2261 144 63C144 67.7739 142.104 72.3523 138.728 75.7279C135.352 79.1036 130.774 81 126 81ZM126 90C122.454 90 118.943 89.3016 115.668 87.9447C112.392 86.5879 109.415 84.5991 106.908 82.0919C104.401 79.5847 102.412 76.6082 101.055 73.3325C99.6984 70.0567 99 66.5457 99 63C99 59.4543 99.6984 55.9433 101.055 52.6675C102.412 49.3918 104.401 46.4153 106.908 43.9081C109.415 41.4009 112.392 39.4121 115.668 38.0553C118.943 36.6984 122.454 36 126 36C133.161 36 140.028 38.8446 145.092 43.9081C150.155 48.9716 153 55.8392 153 63C153 70.1608 150.155 77.0284 145.092 82.0919C140.028 87.1554 133.161 90 126 90ZM85.5 119.25C79.5326 119.25 73.8097 121.621 69.5901 125.84C65.3705 130.06 63 135.783 63 141.75V153.45C63 154.643 62.5259 155.788 61.682 156.632C60.8381 157.476 59.6935 157.95 58.5 157.95C57.3065 157.95 56.1619 157.476 55.318 156.632C54.4741 155.788 54 154.643 54 153.45V141.75C54 133.396 57.3187 125.384 63.2261 119.476C69.1335 113.569 77.1457 110.25 85.5 110.25C93.8543 110.25 101.866 113.569 107.774 119.476C113.681 125.384 117 133.396 117 141.75V153.45C117 154.643 116.526 155.788 115.682 156.632C114.838 157.476 113.693 157.95 112.5 157.95C111.307 157.95 110.162 157.476 109.318 156.632C108.474 155.788 108 154.643 108 153.45V141.75C108 138.795 107.418 135.869 106.287 133.14C105.157 130.41 103.499 127.929 101.41 125.84C99.3206 123.751 96.8402 122.093 94.1104 120.963C91.3806 119.832 88.4547 119.25 85.5 119.25Z" fill="#06B6D4"/>
<path fill-rule="evenodd" clip-rule="evenodd" d="M85.5 105.75C90.2739 105.75 94.8523 103.854 98.2279 100.478C101.604 97.1023 103.5 92.5239 103.5 87.75C103.5 82.9761 101.604 78.3977 98.2279 75.0221C94.8523 71.6464 90.2739 69.75 85.5 69.75C80.7261 69.75 76.1477 71.6464 72.7721 75.0221C69.3964 78.3977 67.5 82.9761 67.5 87.75C67.5 92.5239 69.3964 97.1023 72.7721 100.478C76.1477 103.854 80.7261 105.75 85.5 105.75ZM85.5 114.75C92.6608 114.75 99.5284 111.905 104.592 106.842C109.655 101.778 112.5 94.9108 112.5 87.75C112.5 80.5892 109.655 73.7216 104.592 68.6581C99.5284 63.5946 92.6608 60.75 85.5 60.75C78.3392 60.75 71.4716 63.5946 66.4081 68.6581C61.3446 73.7216 58.5 80.5892 58.5 87.75C58.5 94.9108 61.3446 101.778 66.4081 106.842C71.4716 111.905 78.3392 114.75 85.5 114.75Z" fill="#06B6D4"/>
</svg>
