<svg width="128" height="48" viewBox="0 0 128 48" fill="none" xmlns="http://www.w3.org/2000/svg">
<path d="M24.2 39.012C23.7147 39.012 23.1773 38.9253 22.588 38.752C20.82 38.336 19.6067 37.2613 18.948 35.528C18.3933 34.2107 18.4107 32.72 19 31.056C19.208 30.4667 19.52 29.7733 19.936 28.976C20.0053 28.8373 20.0747 28.6813 20.144 28.508C20.248 28.3347 20.352 28.1787 20.456 28.04C19.6933 28.456 18.9133 28.9067 18.116 29.392C17.3533 29.8427 16.5733 30.276 15.776 30.692C14.3893 31.5587 13.0373 32.356 11.72 33.084C10.4027 33.7773 9.18933 34.3667 8.08 34.852C6.79733 35.4413 5.48 35.476 4.128 34.956C2.776 34.436 1.82267 33.5173 1.268 32.2C0.678666 30.8827 0.644 29.5653 1.164 28.248C1.684 26.896 2.60267 25.9427 3.92 25.388C4.71733 25.0067 5.70533 24.504 6.884 23.88C8.06267 23.2213 9.29333 22.5107 10.576 21.748C12.1013 20.8467 13.7133 19.928 15.412 18.992C17.1107 18.0213 18.7573 17.1893 20.352 16.496C22.1893 15.5947 23.9053 14.988 25.5 14.676C26.6093 14.3987 27.6493 14.2427 28.62 14.208C29.5907 14.1733 30.5093 14.2773 31.376 14.52C33.2827 15.0747 34.5827 16.2533 35.276 18.056C35.796 19.3387 35.8653 20.6213 35.484 21.904C35.1373 23.152 34.6693 24.3307 34.08 25.44C34.184 25.4053 34.288 25.3707 34.392 25.336C34.5307 25.3013 34.652 25.2667 34.756 25.232C36.0733 24.7467 37.3733 24.816 38.656 25.44C39.9733 26.0293 40.8747 27 41.36 28.352C41.8453 29.704 41.7933 31.0387 41.204 32.356C40.6147 33.6387 39.6267 34.5227 38.24 35.008C36.6453 35.5627 35.1547 36.0827 33.768 36.568C32.416 37.0533 31.22 37.4693 30.18 37.816C28.7587 38.232 27.58 38.544 26.644 38.752C25.7427 38.9253 24.928 39.012 24.2 39.012Z" fill="white"/>
<path d="M67.325 25.9C67.325 25.2701 67.5752 24.666 68.0206 24.2206C68.466 23.7752 69.0701 23.525 69.7 23.525C70.3299 23.525 70.934 23.7752 71.3794 24.2206C71.8248 24.666 72.075 25.2701 72.075 25.9C72.075 26.5299 71.8248 27.134 71.3794 27.5794C70.934 28.0248 70.3299 28.275 69.7 28.275C69.0701 28.275 68.466 28.0248 68.0206 27.5794C67.5752 27.134 67.325 26.5299 67.325 25.9ZM83 24V43H45V24C45 13.55 53.55 5 64 5C74.45 5 83 13.55 83 24ZM48.8 24C48.8 32.379 55.621 43 64 43C72.379 43 79.2 32.379 79.2 24C79.2 22.499 78.972 21.055 78.573 19.706C74.8998 20.5604 71.0552 20.2989 67.5316 18.9551C64.0079 17.6113 60.9655 15.2463 58.794 12.163C56.932 16.704 53.379 20.371 48.895 22.366C48.8 22.898 48.8 23.449 48.8 24ZM58.3 28.275C58.9299 28.275 59.534 28.0248 59.9794 27.5794C60.4248 27.134 60.675 26.5299 60.675 25.9C60.675 25.2701 60.4248 24.666 59.9794 24.2206C59.534 23.7752 58.9299 23.525 58.3 23.525C57.6701 23.525 57.066 23.7752 56.6206 24.2206C56.1752 24.666 55.925 25.2701 55.925 25.9C55.925 26.5299 56.1752 27.134 56.6206 27.5794C57.066 28.0248 57.6701 28.275 58.3 28.275Z" fill="white"/>
<path d="M109.2 39.012C108.715 39.012 108.177 38.9253 107.588 38.752C105.82 38.336 104.607 37.2613 103.948 35.528C103.393 34.2107 103.411 32.72 104 31.056C104.208 30.4667 104.52 29.7733 104.936 28.976C105.005 28.8373 105.075 28.6813 105.144 28.508C105.248 28.3347 105.352 28.1787 105.456 28.04C104.693 28.456 103.913 28.9067 103.116 29.392C102.353 29.8427 101.573 30.276 100.776 30.692C99.3893 31.5587 98.0373 32.356 96.72 33.084C95.4027 33.7773 94.1893 34.3667 93.08 34.852C91.7973 35.4413 90.48 35.476 89.128 34.956C87.776 34.436 86.8227 33.5173 86.268 32.2C85.6787 30.8827 85.644 29.5653 86.164 28.248C86.684 26.896 87.6027 25.9427 88.92 25.388C89.7173 25.0067 90.7053 24.504 91.884 23.88C93.0627 23.2213 94.2933 22.5107 95.576 21.748C97.1013 20.8467 98.7133 19.928 100.412 18.992C102.111 18.0213 103.757 17.1893 105.352 16.496C107.189 15.5947 108.905 14.988 110.5 14.676C111.609 14.3987 112.649 14.2427 113.62 14.208C114.591 14.1733 115.509 14.2773 116.376 14.52C118.283 15.0747 119.583 16.2533 120.276 18.056C120.796 19.3387 120.865 20.6213 120.484 21.904C120.137 23.152 119.669 24.3307 119.08 25.44C119.184 25.4053 119.288 25.3707 119.392 25.336C119.531 25.3013 119.652 25.2667 119.756 25.232C121.073 24.7467 122.373 24.816 123.656 25.44C124.973 26.0293 125.875 27 126.36 28.352C126.845 29.704 126.793 31.0387 126.204 32.356C125.615 33.6387 124.627 34.5227 123.24 35.008C121.645 35.5627 120.155 36.0827 118.768 36.568C117.416 37.0533 116.22 37.4693 115.18 37.816C113.759 38.232 112.58 38.544 111.644 38.752C110.743 38.9253 109.928 39.012 109.2 39.012Z" fill="white"/>
</svg>
